<?xml version="1.0" standalone="no"?>
<!DOCTYPE svg PUBLIC "-//W3C//DTD SVG 20010904//EN"
 "http://www.w3.org/TR/2001/REC-SVG-20010904/DTD/svg10.dtd">
<svg version="1.0" xmlns="http://www.w3.org/2000/svg"
 width="331.000000pt" height="331.000000pt" viewBox="0 0 331.000000 331.000000"
 preserveAspectRatio="xMidYMid meet">
<metadata>
Created by potrace 1.14, written by Peter Selinger 2001-2017
</metadata>
<g transform="translate(0.000000,331.000000) scale(0.100000,-0.100000)"
fill="#000000" stroke="none">
<path d="M2006 3217 c-33 -70 -187 -330 -198 -335 -5 -2 -8 -12 -8 -22 0 -10
-4 -20 -8 -22 -5 -1 -18 -30 -29 -64 -36 -107 -24 -205 37 -301 8 -12 12 -24
9 -27 -8 -8 -300 90 -369 123 -35 17 -62 25 -66 19 -14 -22 21 -286 45 -337
49 -105 89 -174 124 -212 49 -54 126 -111 138 -103 5 3 9 1 9 -4 0 -14 98 -54
121 -50 16 2 13 7 -18 23 -42 21 -90 53 -111 72 -7 7 -21 18 -30 25 -24 18
-94 105 -121 151 -20 32 -57 121 -65 152 -1 6 -5 19 -9 30 -9 27 -17 71 -24
127 l-5 47 28 -8 c34 -11 52 -16 79 -27 11 -4 22 -8 25 -9 3 -1 39 -12 80 -24
41 -13 80 -24 85 -26 20 -4 51 -18 131 -57 120 -57 174 -120 209 -241 9 -32
18 -57 20 -55 2 2 6 36 10 77 4 41 13 97 20 125 7 28 11 54 9 58 -3 5 -1 8 4
8 6 0 13 12 16 27 9 33 57 103 99 144 42 40 165 124 197 134 14 4 27 11 30 15
3 3 48 29 100 57 108 57 161 87 194 108 19 12 25 13 33 3 13 -18 35 -95 39
-138 11 -111 16 -146 25 -154 12 -13 16 140 5 229 -3 28 -9 77 -12 110 -3 33
-10 65 -16 72 -6 8 -33 -6 -95 -50 -48 -34 -89 -60 -91 -59 -3 2 -8 0 -11 -5
-3 -5 -24 -19 -46 -32 -143 -84 -226 -131 -230 -131 -3 0 -11 -5 -18 -10 -30
-26 -90 -60 -95 -55 -3 3 -1 31 5 63 23 127 2 255 -68 396 -16 34 -29 66 -29
73 0 7 -4 13 -8 13 -5 0 -26 26 -48 58 -38 56 -59 82 -66 82 -2 0 -16 -29 -32
-63z m71 -57 c3 -11 10 -20 16 -20 6 0 7 -3 4 -7 -4 -3 -3 -11 2 -17 30 -35
95 -186 93 -213 0 -1 5 -22 12 -45 28 -99 2 -316 -44 -358 -42 -39 -98 -174
-94 -227 1 -26 2 -25 -20 -17 -9 3 -16 12 -16 20 0 8 -9 19 -20 26 -11 7 -20
18 -20 25 0 7 -4 13 -8 13 -5 0 -17 9 -29 19 -11 11 -38 28 -59 40 -63 33 -71
43 -93 115 -28 90 -28 148 1 235 11 35 86 182 97 191 3 3 14 22 25 42 10 20
27 46 38 58 10 11 16 20 13 20 -4 0 3 13 14 29 12 16 21 32 21 35 0 4 7 18 16
31 20 30 44 32 51 5z"/>
<path d="M2040 2870 c0 -5 5 -10 11 -10 5 0 7 5 4 10 -3 6 -8 10 -11 10 -2 0
-4 -4 -4 -10z"/>
<path d="M2039 2838 c-3 -41 -7 -79 -13 -123 -5 -27 -9 -63 -11 -80 -2 -16 -8
-42 -13 -56 -6 -14 -7 -32 -2 -39 9 -15 36 39 46 94 10 53 12 216 3 216 -5 0
-9 -6 -10 -12z"/>
<path d="M1154 2893 c19 -125 24 -194 31 -408 3 -93 8 -187 11 -207 3 -21 2
-38 -1 -38 -4 0 -27 18 -53 39 -99 82 -220 123 -372 124 -115 1 -246 -10 -271
-24 -18 -9 -18 -11 2 -32 36 -38 133 -193 212 -339 11 -20 37 -60 59 -88 21
-28 38 -53 38 -56 0 -3 -24 -2 -52 2 -63 8 -265 8 -328 -1 -25 -3 -69 -13 -98
-21 l-53 -15 33 -33 c66 -67 115 -123 198 -226 46 -58 87 -107 90 -110 4 -3
18 -22 32 -43 14 -20 42 -55 62 -77 42 -45 37 -51 -39 -47 -47 2 -87 -2 -160
-18 -47 -10 -166 -66 -210 -100 -91 -68 -205 -171 -205 -183 0 -4 34 -17 76
-30 41 -13 101 -35 132 -49 31 -15 66 -28 77 -30 10 -2 23 -9 27 -16 4 -6 8
-9 8 -4 0 4 11 0 25 -9 14 -9 25 -13 25 -10 0 4 10 0 22 -8 13 -7 37 -17 53
-21 43 -12 45 -12 48 -14 16 -13 154 -20 192 -10 11 3 32 9 48 14 15 4 27 11
27 16 0 5 6 9 13 9 8 0 24 11 37 25 34 36 49 32 45 -12 -5 -58 -33 -198 -60
-305 -14 -53 -25 -101 -25 -106 0 -9 117 15 210 43 55 17 178 77 215 105 34
25 135 133 135 144 0 5 6 17 14 25 21 25 58 131 63 181 3 32 1 41 -6 30 -5 -8
-8 -17 -5 -21 2 -4 0 -10 -6 -14 -5 -3 -10 -15 -10 -26 0 -10 -4 -19 -10 -19
-5 0 -10 -6 -10 -13 0 -15 -69 -117 -109 -160 -63 -69 -196 -148 -310 -186
-90 -30 -95 -29 -86 17 4 20 9 51 12 67 3 17 8 48 12 71 4 23 7 55 7 73 -1 17
2 31 5 31 3 0 10 28 16 62 15 87 20 108 34 124 6 8 9 14 5 14 -15 0 52 100 93
138 57 53 69 62 76 62 22 -1 25 1 19 12 -4 7 -3 8 5 4 13 -8 51 2 51 13 0 5
-17 5 -38 1 -43 -8 -206 -5 -220 3 -5 4 -24 9 -42 12 -45 8 -146 62 -173 93
-12 14 -37 40 -55 59 -19 19 -63 74 -98 121 -35 48 -70 94 -77 102 -8 8 -19
25 -26 37 -6 12 -17 27 -24 35 -7 7 -32 38 -55 68 -38 48 -41 55 -25 61 10 4
115 7 233 8 170 1 228 -2 278 -14 35 -9 79 -14 98 -12 19 3 37 1 39 -4 5 -8
-73 -49 -94 -49 -5 0 -11 -3 -13 -7 -1 -5 -34 -24 -71 -43 -89 -45 -103 -61
-79 -83 26 -26 122 -88 122 -80 0 4 7 -2 15 -13 8 -10 15 -14 15 -9 0 7 3 7 8
0 7 -11 73 -45 134 -69 76 -30 212 -47 268 -33 8 2 32 7 53 12 20 4 37 11 37
16 0 5 8 9 18 9 19 0 53 25 121 88 l46 43 -46 -28 c-26 -15 -44 -32 -41 -37 3
-5 0 -6 -7 -2 -7 5 -20 1 -29 -7 -43 -36 -204 -53 -325 -33 -39 6 -209 91
-240 120 -14 13 -28 22 -30 20 -2 -3 -10 3 -17 11 -16 20 -3 30 80 65 33 14
60 28 60 33 0 4 5 7 11 7 16 0 222 103 231 115 4 6 8 7 8 3 0 -4 18 -1 40 7
71 25 162 25 255 -1 11 -3 -7 11 -40 31 -89 53 -96 57 -134 90 -70 60 -103
102 -136 170 -50 101 -55 137 -60 430 -2 116 -6 220 -9 232 -3 16 1 26 15 33
13 7 19 7 19 0 0 -5 5 -10 11 -10 6 0 24 -9 40 -21 16 -11 29 -17 29 -14 0 4
13 -4 29 -17 16 -12 47 -33 68 -45 21 -13 77 -47 126 -77 48 -30 87 -52 87
-48 -1 8 -155 127 -260 199 -41 29 -81 57 -87 63 -7 6 -13 7 -13 3 0 -4 -4 -3
-8 3 -7 11 -125 74 -137 74 -4 0 -4 -17 -1 -37z m-409 -543 c0 -1 25 -3 55 -5
70 -4 100 -10 162 -31 56 -18 143 -62 174 -87 10 -8 33 -27 50 -41 17 -14 45
-53 62 -88 36 -72 69 -112 129 -155 23 -16 38 -34 35 -40 -4 -5 -27 -13 -51
-17 -24 -4 -49 -10 -55 -14 -6 -4 -13 -7 -16 -8 -31 -6 -60 -18 -60 -25 0 -5
-3 -8 -7 -7 -5 1 -22 -6 -40 -15 -85 -45 -239 4 -336 108 -37 38 -123 169
-197 300 -10 17 -27 47 -40 68 -12 21 -21 40 -18 42 2 2 19 7 38 10 19 3 35 7
36 8 2 2 79 -1 79 -3z m29 -1104 c34 -6 86 -29 86 -37 0 -4 10 -10 23 -14 12
-4 27 -9 32 -11 6 -1 24 -6 40 -9 17 -4 37 -8 45 -10 8 -2 38 -4 65 -4 l50 -1
-42 -38 c-49 -44 -86 -101 -108 -170 -15 -46 -22 -53 -72 -77 -73 -36 -144
-54 -201 -51 -46 3 -147 28 -187 46 -11 5 -45 19 -75 31 -30 13 -58 27 -61 32
-3 4 -10 7 -15 6 -5 -1 -31 8 -58 21 -27 12 -54 23 -60 25 -6 1 -26 8 -44 15
l-32 12 37 35 c37 34 97 78 134 98 11 5 19 13 19 17 0 5 4 8 10 8 5 0 35 12
66 26 31 14 65 27 75 29 11 2 23 7 29 10 5 3 51 8 102 12 51 3 95 7 97 9 2 2
7 2 11 -1 3 -2 19 -6 34 -9z"/>
<path d="M850 2196 c0 -2 19 -16 43 -32 23 -16 44 -32 47 -35 3 -3 28 -20 55
-39 28 -18 59 -41 70 -50 33 -28 75 -53 75 -44 -1 18 -67 82 -123 118 -52 34
-167 91 -167 82z"/>
<path d="M571 1078 c-18 -5 -31 -12 -28 -15 8 -8 267 -9 267 -1 0 4 -5 10 -12
14 -17 11 -187 12 -227 2z"/>
<path d="M500 1066 c0 -2 7 -6 15 -10 8 -3 15 -1 15 4 0 6 -7 10 -15 10 -8 0
-15 -2 -15 -4z"/>
<path d="M2555 2542 c6 -4 11 -13 13 -20 1 -7 13 -30 26 -50 32 -52 65 -157
68 -217 0 -18 -14 -88 -22 -111 -5 -12 -7 -25 -4 -28 2 -3 1 -4 -2 -1 -4 2
-19 -15 -34 -38 -53 -81 -129 -150 -340 -309 -108 -80 -272 -228 -255 -228 5
0 -1 -8 -11 -17 -23 -21 -83 -112 -111 -168 -46 -92 -83 -236 -83 -320 0 -22
-1 -51 -3 -65 -2 -14 -1 -29 1 -34 3 -5 6 -36 8 -70 2 -33 6 -72 10 -86 3 -14
8 -36 11 -50 8 -46 19 -41 22 9 1 28 4 60 7 73 3 13 7 39 9 58 2 19 8 46 13
60 5 14 11 30 12 35 20 82 75 173 155 260 25 27 129 105 140 105 5 0 16 6 24
14 20 17 114 65 292 150 75 36 163 83 196 105 116 77 231 198 284 300 12 23
23 40 25 38 2 -2 -5 -37 -16 -78 -11 -41 -22 -84 -24 -97 -3 -13 -9 -28 -14
-35 -14 -17 -29 -103 -26 -152 3 -50 8 -78 27 -135 44 -131 35 -155 -58 -166
-22 -3 -48 -13 -59 -24 -16 -15 -17 -23 -8 -49 13 -38 0 -81 -27 -88 -12 -3
-18 -14 -19 -35 -1 -38 -2 -39 -56 -45 -49 -6 -52 -11 -59 -105 -7 -95 -72
-92 -233 11 -78 49 -114 47 -181 -12 -54 -48 -89 -170 -77 -268 12 -100 67
-231 139 -329 43 -59 146 -158 205 -198 30 -20 57 -40 58 -44 2 -5 8 -8 14 -8
5 0 23 -9 39 -21 16 -11 29 -17 29 -13 0 3 7 1 15 -6 28 -23 25 -5 -9 60 -60
116 -69 203 -31 313 17 51 83 170 97 175 4 2 8 8 8 13 0 6 43 74 95 151 52 78
95 145 95 149 0 5 5 9 11 9 5 0 8 4 5 9 -4 5 -3 11 2 13 4 1 23 28 42 58 19
30 39 58 45 62 5 4 6 8 2 8 -4 0 8 25 28 55 19 31 35 58 35 62 0 3 20 39 45
79 25 39 45 77 45 83 0 10 24 89 37 121 8 20 8 18 18 75 4 28 10 57 12 65 10
49 -1 230 -15 255 -4 6 -8 21 -10 35 -4 31 -83 190 -94 190 -4 0 -8 6 -8 14 0
20 -154 174 -245 244 -44 35 -89 70 -100 78 -11 9 -35 23 -52 32 -18 9 -33 19
-33 24 0 4 -4 8 -9 8 -6 0 -36 16 -68 35 -32 19 -62 35 -68 35 -7 0 -7 -3 0
-8z"/>
<path d="M2508 2350 c-2 -55 -6 -69 -44 -145 -48 -97 -126 -167 -362 -321 -86
-57 -168 -111 -182 -121 -33 -25 -140 -130 -140 -138 0 -4 -8 -15 -17 -24 -46
-42 -155 -270 -165 -342 -2 -13 -7 -30 -11 -36 -5 -7 -5 -18 -2 -23 4 -6 2
-16 -3 -23 -10 -13 -9 -225 1 -267 10 -37 21 -84 22 -90 0 -3 4 -11 8 -17 5
-7 6 -13 3 -13 -3 0 8 -29 24 -65 35 -78 115 -205 130 -205 14 0 13 5 -9 48
-10 20 -19 40 -19 45 0 4 -10 38 -21 75 -20 64 -27 89 -36 137 -2 11 -7 36
-11 55 -9 42 -9 222 -1 265 15 75 19 92 43 159 27 77 88 185 129 229 14 15 23
27 21 27 -11 0 121 124 189 179 39 31 122 94 186 141 64 47 133 99 152 117 46
41 103 116 124 162 19 44 23 195 5 213 -9 9 -12 4 -14 -22z"/>
<path d="M1615 2290 c49 -94 169 -239 237 -286 89 -62 72 -29 -45 89 -67 67
-140 142 -161 167 -21 25 -35 38 -31 30z"/>
<path d="M1577 1663 c-4 -3 -17 -7 -29 -8 -13 -1 -43 -5 -68 -9 -44 -7 -127
-14 -244 -19 -38 -2 -61 -8 -64 -16 -3 -9 6 -12 31 -10 20 2 38 1 41 -2 11
-11 211 1 261 15 52 16 94 40 84 50 -3 3 -9 3 -12 -1z"/>
<path d="M1354 1018 c-54 -80 -148 -199 -217 -275 -29 -32 -13 -28 20 5 15 15
31 26 35 25 4 -2 10 6 13 17 4 11 11 20 16 20 11 0 49 41 101 110 32 43 73
128 65 136 -2 3 -17 -15 -33 -38z"/>
<path d="M1775 500 c3 -5 8 -10 11 -10 2 0 4 5 4 10 0 6 -5 10 -11 10 -5 0 -7
-4 -4 -10z"/>
</g>
</svg>
